<?xml version="1.0" encoding="UTF-8"?>
<svg width="529px" height="63px" viewBox="0 0 529 63" version="1.1" xmlns="http://www.w3.org/2000/svg" xmlns:xlink="http://www.w3.org/1999/xlink">
    <!-- Generator: Sketch 53.2 (72643) - https://sketchapp.com -->
    <title>Group</title>
    <desc>Created with Sketch.</desc>
    <g id="Final-v2" stroke="none" stroke-width="1" fill="none" fill-rule="evenodd">
        <g id="With-Copy-2" transform="translate(-133.000000, -269.000000)" fill-rule="nonzero">
            <g id="Group" transform="translate(133.000000, 269.000000)">
                <g id="Path">
                    <polygon fill="#00BAB6" points="20.6855346 28.1802935 103.629455 28.1802935 112.421384 34.1761006 29.8966139 34.1761006"></polygon>
                    <polygon fill="#00B3AF" points="20.6855346 28.1802935 103.629455 28.1802935 106.125786 29.9790356 23.6834382 29.9790356"></polygon>
                    <path d="M53.0251925,1.66977543e-14 L131.579441,1.96799483e-14 C132.541471,1.43765009e-14 133.445058,0.461686148 134.008767,1.24125912 L142.868916,13.4942747 C143.062949,13.7626107 143.002715,14.1374352 142.734379,14.3314688 C142.701524,14.3552264 142.666344,14.3755901 142.629379,14.3922473 L115.261988,26.724527 C113.13257,27.684084 110.823589,28.1802935 108.487959,28.1802935 L20.6855346,28.1802935 L35.0207941,9.01637644 C39.2658839,3.34137991 45.9381358,1.29937998e-14 53.0251925,1.66977543e-14 Z" fill="#00EE87"></path>
                    <path d="M22.3343816,34.1761006 L112.421384,34.1761006 L101.413471,51.7887602 C97.3047317,58.3627437 90.0991974,62.3563941 82.3468429,62.3563941 L0.299790356,62.3563941 C0.134220714,62.3563941 0,62.2221734 0,62.0566038 C0,61.9917381 0.0210386492,61.9286221 0.0599580713,61.8767296 L19.9360587,35.3752621 C20.5022259,34.6203724 21.3907695,34.1761006 22.3343816,34.1761006 Z" fill="#363B7A"></path>
                </g>
                <path d="M183.828,18.88 C183.134663,17.9786622 182.15534,17.2246697 180.89,16.618 C179.62466,16.0113303 178.350673,15.708 177.068,15.708 C176.30533,15.708 175.54267,15.8033324 174.78,15.994 C174.01733,16.1846676 173.324003,16.4793313 172.7,16.878 C172.075997,17.2766687 171.564669,17.7966635 171.166,18.438 C170.767331,19.0793365 170.568,19.8506622 170.568,20.752 C170.568,21.5840042 170.741332,22.2946637 171.088,22.884 C171.434668,23.4733363 171.91133,23.9759979 172.518,24.392 C173.12467,24.8080021 173.861329,25.1719984 174.728,25.484 C175.594671,25.7960016 176.547995,26.1079984 177.588,26.42 C178.766673,26.8013352 179.98866,27.2346642 181.254,27.72 C182.51934,28.2053358 183.680661,28.8466627 184.738,29.644 C185.795339,30.4413373 186.661997,31.4466606 187.338,32.66 C188.014003,33.8733394 188.352,35.3813243 188.352,37.184 C188.352,39.1600099 187.988004,40.8846593 187.26,42.358 C186.531996,43.8313407 185.561339,45.0533285 184.348,46.024 C183.134661,46.9946715 181.713341,47.7226642 180.084,48.208 C178.454659,48.6933358 176.738676,48.936 174.936,48.936 C172.543988,48.936 170.204011,48.4940044 167.916,47.61 C165.627989,46.7259956 163.756007,45.417342 162.3,43.684 L166.98,39.316 C167.881338,40.5640062 169.085992,41.5519964 170.594,42.28 C172.102008,43.0080036 173.583993,43.372 175.04,43.372 C175.80267,43.372 176.582663,43.2766676 177.38,43.086 C178.177337,42.8953324 178.896663,42.5746689 179.538,42.124 C180.179337,41.6733311 180.699331,41.1100034 181.098,40.434 C181.496669,39.7579966 181.696,38.9173384 181.696,37.912 C181.696,36.9413285 181.470669,36.1353365 181.02,35.494 C180.569331,34.8526635 179.96267,34.2980023 179.2,33.83 C178.43733,33.3619977 177.536005,32.9546684 176.496,32.608 L173.22,31.516 C172.110661,31.1693316 171.001339,30.7533358 169.892,30.268 C168.782661,29.7826642 167.786004,29.1413373 166.902,28.344 C166.017996,27.5466627 165.298669,26.5673391 164.744,25.406 C164.189331,24.2446609 163.912,22.797342 163.912,21.064 C163.912,19.1919906 164.301996,17.5800068 165.082,16.228 C165.862004,14.8759932 166.88466,13.7580044 168.15,12.874 C169.41534,11.9899956 170.853992,11.3313355 172.466,10.898 C174.078008,10.4646645 175.715992,10.248 177.38,10.248 C179.252009,10.248 181.14999,10.57733 183.074,11.236 C184.99801,11.89467 186.67066,12.8826601 188.092,14.2 L183.828,18.88 Z M211.448,29.956 C210.962664,29.2626632 210.234672,28.6820023 209.264,28.214 C208.293328,27.7459977 207.305338,27.512 206.3,27.512 C205.155994,27.512 204.150671,27.7459977 203.284,28.214 C202.417329,28.6820023 201.698003,29.2973295 201.126,30.06 C200.553997,30.8226705 200.129335,31.6806619 199.852,32.634 C199.574665,33.5873381 199.436,34.5493285 199.436,35.52 C199.436,36.4906715 199.583332,37.4526619 199.878,38.406 C200.172668,39.3593381 200.614664,40.2173295 201.204,40.98 C201.793336,41.7426705 202.529996,42.3579977 203.414,42.826 C204.298004,43.2940023 205.329327,43.528 206.508,43.528 C207.478672,43.528 208.449328,43.3373352 209.42,42.956 C210.390672,42.5746648 211.170664,42.0200036 211.76,41.292 L215.66,45.244 C214.619995,46.3533389 213.294008,47.2113303 211.682,47.818 C210.069992,48.4246697 208.328009,48.728 206.456,48.728 C204.618657,48.728 202.876675,48.4333363 201.23,47.844 C199.583325,47.2546637 198.144673,46.3880057 196.914,45.244 C195.683327,44.0999943 194.71267,42.7133415 194.002,41.084 C193.29133,39.4546585 192.936,37.6000104 192.936,35.52 C192.936,33.5093233 193.29133,31.6893415 194.002,30.06 C194.71267,28.4306585 195.674661,27.0440057 196.888,25.9 C198.101339,24.7559943 199.513992,23.8720031 201.126,23.248 C202.738008,22.6239969 204.462657,22.312 206.3,22.312 C208.137343,22.312 209.913991,22.6586632 211.63,23.352 C213.346009,24.0453368 214.706662,24.9986606 215.712,26.212 L211.448,29.956 Z M235.064,44.828 L234.908,44.828 C234.283997,45.9373389 233.278674,46.8473298 231.892,47.558 C230.505326,48.2686702 228.928009,48.624 227.16,48.624 C226.154662,48.624 225.106005,48.4940013 224.014,48.234 C222.921995,47.9739987 221.916671,47.5406697 220.998,46.934 C220.079329,46.3273303 219.31667,45.5300049 218.71,44.542 C218.10333,43.5539951 217.8,42.3320073 217.8,40.876 C217.8,39.0039906 218.328661,37.5133389 219.386,36.404 C220.443339,35.2946611 221.803992,34.4453363 223.468,33.856 C225.132008,33.2666637 226.97799,32.8766676 229.006,32.686 C231.03401,32.4953324 233.018657,32.4 234.96,32.4 L234.96,31.776 C234.96,30.2159922 234.396672,29.0633371 233.27,28.318 C232.143328,27.5726629 230.800008,27.2 229.24,27.2 C227.92266,27.2 226.657339,27.4773306 225.444,28.032 C224.230661,28.5866694 223.225337,29.2626627 222.428,30.06 L219.204,26.264 C220.62534,24.9466601 222.263324,23.95867 224.118,23.3 C225.972676,22.64133 227.853324,22.312 229.76,22.312 C231.978678,22.312 233.807326,22.6239969 235.246,23.248 C236.684674,23.8720031 237.819996,24.6866616 238.652,25.692 C239.484004,26.6973384 240.064665,27.8239938 240.394,29.072 C240.723335,30.3200062 240.888,31.5679938 240.888,32.816 L240.888,48 L235.064,48 L235.064,44.828 Z M234.96,36.612 L233.556,36.612 C232.550662,36.612 231.493339,36.6553329 230.384,36.742 C229.274661,36.8286671 228.252005,37.0193319 227.316,37.314 C226.379995,37.6086681 225.600003,38.024664 224.976,38.562 C224.351997,39.099336 224.04,39.8359953 224.04,40.772 C224.04,41.3613363 224.169999,41.8553313 224.43,42.254 C224.690001,42.6526687 225.027998,42.9733321 225.444,43.216 C225.860002,43.4586679 226.327997,43.6319995 226.848,43.736 C227.368003,43.8400005 227.887997,43.892 228.408,43.892 C230.557344,43.892 232.186661,43.3200057 233.296,42.176 C234.405339,41.0319943 234.96,39.4720099 234.96,37.496 L234.96,36.612 Z M248.072,8.688 L254.312,8.688 L254.312,48 L248.072,48 L248.072,8.688 Z M277.2,44.828 L277.044,44.828 C276.419997,45.9373389 275.414674,46.8473298 274.028,47.558 C272.641326,48.2686702 271.064009,48.624 269.296,48.624 C268.290662,48.624 267.242005,48.4940013 266.15,48.234 C265.057995,47.9739987 264.052671,47.5406697 263.134,46.934 C262.215329,46.3273303 261.45267,45.5300049 260.846,44.542 C260.23933,43.5539951 259.936,42.3320073 259.936,40.876 C259.936,39.0039906 260.464661,37.5133389 261.522,36.404 C262.579339,35.2946611 263.939992,34.4453363 265.604,33.856 C267.268008,33.2666637 269.11399,32.8766676 271.142,32.686 C273.17001,32.4953324 275.154657,32.4 277.096,32.4 L277.096,31.776 C277.096,30.2159922 276.532672,29.0633371 275.406,28.318 C274.279328,27.5726629 272.936008,27.2 271.376,27.2 C270.05866,27.2 268.793339,27.4773306 267.58,28.032 C266.366661,28.5866694 265.361337,29.2626627 264.564,30.06 L261.34,26.264 C262.76134,24.9466601 264.399324,23.95867 266.254,23.3 C268.108676,22.64133 269.989324,22.312 271.896,22.312 C274.114678,22.312 275.943326,22.6239969 277.382,23.248 C278.820674,23.8720031 279.955996,24.6866616 280.788,25.692 C281.620004,26.6973384 282.200665,27.8239938 282.53,29.072 C282.859335,30.3200062 283.024,31.5679938 283.024,32.816 L283.024,48 L277.2,48 L277.2,44.828 Z M277.096,36.612 L275.692,36.612 C274.686662,36.612 273.629339,36.6553329 272.52,36.742 C271.410661,36.8286671 270.388005,37.0193319 269.452,37.314 C268.515995,37.6086681 267.736003,38.024664 267.112,38.562 C266.487997,39.099336 266.176,39.8359953 266.176,40.772 C266.176,41.3613363 266.305999,41.8553313 266.566,42.254 C266.826001,42.6526687 267.163998,42.9733321 267.58,43.216 C267.996002,43.4586679 268.463997,43.6319995 268.984,43.736 C269.504003,43.8400005 270.023997,43.892 270.544,43.892 C272.693344,43.892 274.322661,43.3200057 275.432,42.176 C276.541339,41.0319943 277.096,39.4720099 277.096,37.496 L277.096,36.612 Z M290.104,23.04 L296.084,23.04 L296.084,27.2 L296.188,27.2 C296.881337,25.7439927 297.851994,24.5653378 299.1,23.664 C300.348006,22.7626622 301.803992,22.312 303.468,22.312 C303.710668,22.312 303.970665,22.3206666 304.248,22.338 C304.525335,22.3553334 304.767999,22.3986663 304.976,22.468 L304.976,28.188 C304.559998,28.0839995 304.204668,28.0146668 303.91,27.98 C303.615332,27.9453332 303.329335,27.928 303.052,27.928 C301.63066,27.928 300.486671,28.1879974 299.62,28.708 C298.753329,29.2280026 298.077336,29.8519964 297.592,30.58 C297.106664,31.3080036 296.777334,32.0533295 296.604,32.816 C296.430666,33.5786705 296.344,34.1853311 296.344,34.636 L296.344,48 L290.104,48 L290.104,23.04 Z M340.716,18.88 C340.022663,17.9786622 339.04334,17.2246697 337.778,16.618 C336.51266,16.0113303 335.238673,15.708 333.956,15.708 C333.193329,15.708 332.43067,15.8033324 331.668,15.994 C330.905329,16.1846676 330.212003,16.4793313 329.588,16.878 C328.963997,17.2766687 328.452669,17.7966635 328.054,18.438 C327.655331,19.0793365 327.456,19.8506622 327.456,20.752 C327.456,21.5840042 327.629332,22.2946637 327.976,22.884 C328.322668,23.4733363 328.79933,23.9759979 329.406,24.392 C330.01267,24.8080021 330.749329,25.1719984 331.616,25.484 C332.482671,25.7960016 333.435995,26.1079984 334.476,26.42 C335.654673,26.8013352 336.87666,27.2346642 338.142,27.72 C339.40734,28.2053358 340.568661,28.8466627 341.626,29.644 C342.683339,30.4413373 343.549997,31.4466606 344.226,32.66 C344.902003,33.8733394 345.24,35.3813243 345.24,37.184 C345.24,39.1600099 344.876004,40.8846593 344.148,42.358 C343.419996,43.8313407 342.449339,45.0533285 341.236,46.024 C340.022661,46.9946715 338.601341,47.7226642 336.972,48.208 C335.342658,48.6933358 333.626676,48.936 331.824,48.936 C329.431988,48.936 327.092011,48.4940044 324.804,47.61 C322.515989,46.7259956 320.644007,45.417342 319.188,43.684 L323.868,39.316 C324.769338,40.5640062 325.973992,41.5519964 327.482,42.28 C328.990008,43.0080036 330.471993,43.372 331.928,43.372 C332.69067,43.372 333.470663,43.2766676 334.268,43.086 C335.065337,42.8953324 335.784663,42.5746689 336.426,42.124 C337.067337,41.6733311 337.587331,41.1100034 337.986,40.434 C338.384669,39.7579966 338.584,38.9173384 338.584,37.912 C338.584,36.9413285 338.358669,36.1353365 337.908,35.494 C337.457331,34.8526635 336.85067,34.2980023 336.088,33.83 C335.325329,33.3619977 334.424005,32.9546684 333.384,32.608 L330.108,31.516 C328.998661,31.1693316 327.889339,30.7533358 326.78,30.268 C325.670661,29.7826642 324.674004,29.1413373 323.79,28.344 C322.905996,27.5466627 322.186669,26.5673391 321.632,25.406 C321.077331,24.2446609 320.8,22.797342 320.8,21.064 C320.8,19.1919906 321.189996,17.5800068 321.97,16.228 C322.750004,14.8759932 323.77266,13.7580044 325.038,12.874 C326.30334,11.9899956 327.741992,11.3313355 329.354,10.898 C330.966008,10.4646645 332.603992,10.248 334.268,10.248 C336.140009,10.248 338.03799,10.57733 339.962,11.236 C341.88601,11.89467 343.55866,12.8826601 344.98,14.2 L340.716,18.88 Z M349.824,35.416 C349.824,33.4399901 350.17933,31.6460081 350.89,30.034 C351.60067,28.4219919 352.562661,27.0440057 353.776,25.9 C354.989339,24.7559943 356.427992,23.8720031 358.092,23.248 C359.756008,22.6239969 361.523991,22.312 363.396,22.312 C365.268009,22.312 367.035992,22.6239969 368.7,23.248 C370.364008,23.8720031 371.802661,24.7559943 373.016,25.9 C374.229339,27.0440057 375.19133,28.4219919 375.902,30.034 C376.61267,31.6460081 376.968,33.4399901 376.968,35.416 C376.968,37.3920099 376.61267,39.1946585 375.902,40.824 C375.19133,42.4533415 374.229339,43.8486609 373.016,45.01 C371.802661,46.1713391 370.364008,47.08133 368.7,47.74 C367.035992,48.39867 365.268009,48.728 363.396,48.728 C361.523991,48.728 359.756008,48.39867 358.092,47.74 C356.427992,47.08133 354.989339,46.1713391 353.776,45.01 C352.562661,43.8486609 351.60067,42.4533415 350.89,40.824 C350.17933,39.1946585 349.824,37.3920099 349.824,35.416 Z M356.168,35.416 C356.168,36.3866715 356.315332,37.3573285 356.61,38.328 C356.904668,39.2986715 357.346664,40.1653295 357.936,40.928 C358.525336,41.6906705 359.270662,42.3146642 360.172,42.8 C361.073338,43.2853358 362.147994,43.528 363.396,43.528 C364.644006,43.528 365.718662,43.2853358 366.62,42.8 C367.521338,42.3146642 368.266664,41.6906705 368.856,40.928 C369.445336,40.1653295 369.887332,39.2986715 370.182,38.328 C370.476668,37.3573285 370.624,36.3866715 370.624,35.416 C370.624,34.4453285 370.476668,33.4833381 370.182,32.53 C369.887332,31.5766619 369.445336,30.7186705 368.856,29.956 C368.266664,29.1933295 367.521338,28.5780023 366.62,28.11 C365.718662,27.6419977 364.644006,27.408 363.396,27.408 C362.147994,27.408 361.073338,27.6419977 360.172,28.11 C359.270662,28.5780023 358.525336,29.1933295 357.936,29.956 C357.346664,30.7186705 356.904668,31.5766619 356.61,32.53 C356.315332,33.4833381 356.168,34.4453285 356.168,35.416 Z M383.788,28.032 L379.056,28.032 L379.056,23.04 L383.788,23.04 L383.788,19.348 C383.788,17.8573259 383.952665,16.4273402 384.282,15.058 C384.611335,13.6886598 385.165996,12.4840052 385.946,11.444 C386.726004,10.4039948 387.757327,9.5806697 389.04,8.974 C390.322673,8.3673303 391.934657,8.064 393.876,8.064 C394.569337,8.064 395.149998,8.08999974 395.618,8.142 C396.086002,8.19400026 396.562664,8.28933264 397.048,8.428 L396.632,13.732 C396.285332,13.6279995 395.912669,13.5413337 395.514,13.472 C395.115331,13.4026663 394.690669,13.368 394.24,13.368 C393.338662,13.368 392.610669,13.5413316 392.056,13.888 C391.501331,14.2346684 391.076668,14.6853306 390.782,15.24 C390.487332,15.7946694 390.288,16.40133 390.184,17.06 C390.079999,17.71867 390.028,18.3599969 390.028,18.984 L390.028,23.04 L395.8,23.04 L395.8,28.032 L390.028,28.032 L390.028,48 L383.788,48 L383.788,28.032 Z M395.08,28.032 L395.08,23.04 L399.448,23.04 L399.448,15.812 L405.584,15.812 L405.584,23.04 L411.824,23.04 L411.824,28.032 L405.584,28.032 L405.584,39.628 C405.584,40.7373389 405.783331,41.6559964 406.182,42.384 C406.580669,43.1120036 407.473326,43.476 408.86,43.476 C409.276002,43.476 409.726664,43.4326671 410.212,43.346 C410.697336,43.2593329 411.130665,43.1293342 411.512,42.956 L411.72,47.844 C411.165331,48.052001 410.50667,48.2166661 409.744,48.338 C408.981329,48.4593339 408.253337,48.52 407.56,48.52 C405.895992,48.52 404.544005,48.2860023 403.504,47.818 C402.463995,47.3499977 401.64067,46.7086707 401.034,45.894 C400.42733,45.0793293 400.011334,44.1433386 399.786,43.086 C399.560666,42.0286614 399.448,40.8933394 399.448,39.68 L399.448,28.032 L395.08,28.032 Z M412.612,23.04 L419.372,23.04 L424.572,40.928 L424.676,40.928 L430.032,23.04 L436.688,23.04 L442.096,40.928 L442.2,40.928 L447.504,23.04 L454.004,23.04 L445.372,48 L439.028,48 L433.36,30.528 L433.256,30.528 L427.64,48 L421.296,48 L412.612,23.04 Z M473.252,44.828 L473.096,44.828 C472.471997,45.9373389 471.466674,46.8473298 470.08,47.558 C468.693326,48.2686702 467.116009,48.624 465.348,48.624 C464.342662,48.624 463.294005,48.4940013 462.202,48.234 C461.109995,47.9739987 460.104671,47.5406697 459.186,46.934 C458.267329,46.3273303 457.50467,45.5300049 456.898,44.542 C456.29133,43.5539951 455.988,42.3320073 455.988,40.876 C455.988,39.0039906 456.516661,37.5133389 457.574,36.404 C458.631339,35.2946611 459.991992,34.4453363 461.656,33.856 C463.320008,33.2666637 465.16599,32.8766676 467.194,32.686 C469.22201,32.4953324 471.206657,32.4 473.148,32.4 L473.148,31.776 C473.148,30.2159922 472.584672,29.0633371 471.458,28.318 C470.331328,27.5726629 468.988008,27.2 467.428,27.2 C466.11066,27.2 464.845339,27.4773306 463.632,28.032 C462.418661,28.5866694 461.413337,29.2626627 460.616,30.06 L457.392,26.264 C458.81334,24.9466601 460.451324,23.95867 462.306,23.3 C464.160676,22.64133 466.041324,22.312 467.948,22.312 C470.166678,22.312 471.995326,22.6239969 473.434,23.248 C474.872674,23.8720031 476.007996,24.6866616 476.84,25.692 C477.672004,26.6973384 478.252665,27.8239938 478.582,29.072 C478.911335,30.3200062 479.076,31.5679938 479.076,32.816 L479.076,48 L473.252,48 L473.252,44.828 Z M473.148,36.612 L471.744,36.612 C470.738662,36.612 469.681339,36.6553329 468.572,36.742 C467.462661,36.8286671 466.440005,37.0193319 465.504,37.314 C464.567995,37.6086681 463.788003,38.024664 463.164,38.562 C462.539997,39.099336 462.228,39.8359953 462.228,40.772 C462.228,41.3613363 462.357999,41.8553313 462.618,42.254 C462.878001,42.6526687 463.215998,42.9733321 463.632,43.216 C464.048002,43.4586679 464.515997,43.6319995 465.036,43.736 C465.556003,43.8400005 466.075997,43.892 466.596,43.892 C468.745344,43.892 470.374661,43.3200057 471.484,42.176 C472.593339,41.0319943 473.148,39.4720099 473.148,37.496 L473.148,36.612 Z M486.156,23.04 L492.136,23.04 L492.136,27.2 L492.24,27.2 C492.933337,25.7439927 493.903994,24.5653378 495.152,23.664 C496.400006,22.7626622 497.855992,22.312 499.52,22.312 C499.762668,22.312 500.022665,22.3206666 500.3,22.338 C500.577335,22.3553334 500.819999,22.3986663 501.028,22.468 L501.028,28.188 C500.611998,28.0839995 500.256668,28.0146668 499.962,27.98 C499.667332,27.9453332 499.381335,27.928 499.104,27.928 C497.68266,27.928 496.538671,28.1879974 495.672,28.708 C494.805329,29.2280026 494.129336,29.8519964 493.644,30.58 C493.158664,31.3080036 492.829334,32.0533295 492.656,32.816 C492.482666,33.5786705 492.396,34.1853311 492.396,34.636 L492.396,48 L486.156,48 L486.156,23.04 Z M522.46,33.024 C522.46,32.2266627 522.347334,31.4640036 522.122,30.736 C521.896665,30.0079964 521.541336,29.3666694 521.056,28.812 C520.570664,28.2573306 519.955337,27.815335 519.21,27.486 C518.464663,27.156665 517.589338,26.992 516.584,26.992 C514.711991,26.992 513.126006,27.5553277 511.826,28.682 C510.525993,29.8086723 509.806667,31.2559912 509.668,33.024 L522.46,33.024 Z M528.7,35.832 L528.7,36.664 C528.7,36.9413347 528.682667,37.2186653 528.648,37.496 L509.668,37.496 C509.737334,38.3973378 509.971331,39.2206629 510.37,39.966 C510.768669,40.7113371 511.29733,41.352664 511.956,41.89 C512.61467,42.427336 513.359996,42.8519984 514.192,43.164 C515.024004,43.4760016 515.890662,43.632 516.792,43.632 C518.352008,43.632 519.669328,43.3460029 520.744,42.774 C521.818672,42.2019971 522.702663,41.4133384 523.396,40.408 L527.556,43.736 C525.094654,47.0640166 521.524023,48.728 516.844,48.728 C514.902657,48.728 513.117341,48.4246697 511.488,47.818 C509.858658,47.2113303 508.446006,46.3533389 507.25,45.244 C506.053994,44.1346611 505.118003,42.7740081 504.442,41.162 C503.765997,39.5499919 503.428,37.7213436 503.428,35.676 C503.428,33.6653233 503.765997,31.8366749 504.442,30.19 C505.118003,28.5433251 506.045327,27.1393391 507.224,25.978 C508.402673,24.8166609 509.797992,23.9153365 511.41,23.274 C513.022008,22.6326635 514.763991,22.312 516.636,22.312 C518.369342,22.312 519.972659,22.5979971 521.446,23.17 C522.919341,23.7420029 524.193328,24.5913277 525.268,25.718 C526.342672,26.8446723 527.18333,28.2486583 527.79,29.93 C528.39667,31.6113417 528.7,33.5786554 528.7,35.832 Z" id="ScalarSoftware" fill="#363B7A"></path>
            </g>
        </g>
    </g>
</svg>